<svg xmlns="http://www.w3.org/2000/svg" xmlns:xlink="http://www.w3.org/1999/xlink" version="1.1" width="256" height="256" viewBox="0 0 256 256" xml:space="preserve">

<defs>
</defs>
<g style="stroke: none; stroke-width: 0; stroke-dasharray: none; stroke-linecap: butt; stroke-linejoin: miter; stroke-miterlimit: 10; fill: none; fill-rule: nonzero; opacity: 1;" transform="translate(1.4065934065934016 1.4065934065934016) scale(2.81 2.81)" >
	<circle cx="45" cy="45" r="45" style="stroke: none; stroke-width: 1; stroke-dasharray: none; stroke-linecap: butt; stroke-linejoin: miter; stroke-miterlimit: 10; fill: rgb(32,143,232); fill-rule: nonzero; opacity: 1;" transform="  matrix(1 0 0 1 0 0) "/>
	<path d="M 67.5 26.867 H 56.375 v -3.973 c 0 -1.104 -0.896 -2 -2 -2 s -2 0.896 -2 2 v 3.973 h -14.75 v -3.973 c 0 -1.104 -0.896 -2 -2 -2 s -2 0.896 -2 2 v 3.973 H 22.5 c -1.104 0 -2 0.896 -2 2 v 12.9 v 25.339 c 0 1.104 0.896 2 2 2 h 45 c 1.104 0 2 -0.896 2 -2 V 41.767 v -12.9 C 69.5 27.763 68.604 26.867 67.5 26.867 z M 24.5 30.867 h 9.125 v 2.837 c 0 1.104 0.896 2 2 2 s 2 -0.896 2 -2 v -2.837 h 14.75 v 2.837 c 0 1.104 0.896 2 2 2 s 2 -0.896 2 -2 v -2.837 H 65.5 v 8.9 h -41 V 30.867 z M 65.5 65.106 h -41 V 43.767 h 41 V 65.106 z" style="stroke: none; stroke-width: 1; stroke-dasharray: none; stroke-linecap: butt; stroke-linejoin: miter; stroke-miterlimit: 10; fill: rgb(255,255,255); fill-rule: nonzero; opacity: 1;" transform=" matrix(1 0 0 1 0 0) " stroke-linecap="round" />
</g>
</svg>