<?xml version="1.0" encoding="iso-8859-1"?>
<!-- Uploaded to: SVG Repo, www.svgrepo.com, Generator: SVG Repo Mixer Tools -->
<svg height="800px" width="800px" version="1.1" id="Layer_1" xmlns="http://www.w3.org/2000/svg" xmlns:xlink="http://www.w3.org/1999/xlink" 
	 viewBox="0 0 471.253 471.253" xml:space="preserve">
<polygon style="fill:#F5B945;" points="363.627,396.587 235.627,460.587 107.627,396.587 107.627,300.587 363.627,300.587 "/>
<polygon style="fill:#4A88DA;" points="299.627,428.587 235.627,460.587 171.627,428.587 171.627,300.587 299.627,300.587 "/>
<circle style="fill:#F5B945;" cx="235.627" cy="181.333" r="170.667"/>
<path d="M416.96,181.333C416.96,81.344,335.616,0,235.627,0S54.293,81.344,54.293,181.333c0,44.619,16.277,85.461,43.104,117.088
	c-0.16,0.725-0.437,1.397-0.437,2.165v96c0,4.043,2.283,7.733,5.899,9.547l64,32l64,32c1.504,0.747,3.136,1.12,4.768,1.12
	c1.632,0,3.275-0.373,4.768-1.12l64-32l64-32c3.616-1.813,5.899-5.504,5.899-9.547v-96c0-0.768-0.277-1.44-0.437-2.165
	C400.683,266.805,416.96,225.963,416.96,181.333z M235.627,21.333c88.224,0,160,71.776,160,160s-71.776,160-160,160
	s-160-71.776-160-160S147.403,21.333,235.627,21.333z M118.293,389.995v-70.645c12.811,10.912,27.168,20.011,42.667,27.051v64.928
	L118.293,389.995z M235.627,448.661l-53.333-26.667v-67.349c16.875,5.205,34.773,8.032,53.333,8.032s36.459-2.827,53.333-8.032
	v67.349L235.627,448.661z M310.293,411.328V346.4c15.499-7.04,29.856-16.139,42.667-27.051v70.645L310.293,411.328z"/>
<circle style="fill:#F7C76A;" cx="235.627" cy="181.333" r="128"/>
<path d="M235.627,320C159.168,320,96.96,257.792,96.96,181.333S159.168,42.667,235.627,42.667s138.667,62.208,138.667,138.667
	S312.085,320,235.627,320z M235.627,64c-64.693,0-117.333,52.64-117.333,117.333s52.64,117.333,117.333,117.333
	s117.333-52.64,117.333-117.333S300.32,64,235.627,64z"/>
<polygon style="fill:#D94452;" points="235.627,122.912 253.365,158.848 293.013,164.608 264.32,192.576 271.093,232.064 
	235.627,213.419 200.16,232.064 206.933,192.576 178.24,164.608 217.888,158.848 "/>
<path d="M271.093,242.731c-1.696,0-3.403-0.405-4.96-1.227l-30.507-16.032l-30.507,16.032c-3.563,1.899-7.925,1.579-11.232-0.811
	c-3.285-2.389-4.928-6.432-4.235-10.432l5.824-33.973l-24.672-24.053c-2.901-2.837-3.947-7.072-2.699-10.933
	c1.259-3.851,4.597-6.667,8.619-7.253l34.101-4.96l15.253-30.901c3.584-7.296,15.541-7.296,19.125,0l15.253,30.901l34.101,4.96
	c4.021,0.587,7.349,3.392,8.619,7.253c1.248,3.861,0.213,8.107-2.699,10.933l-24.672,24.053l5.824,33.973
	c0.683,4-0.96,8.043-4.235,10.432C275.499,242.048,273.301,242.731,271.093,242.731z M235.627,202.752
	c1.707,0,3.403,0.405,4.96,1.227l16.341,8.587l-3.115-18.187c-0.597-3.456,0.555-6.987,3.061-9.44l13.216-12.885l-18.272-2.656
	c-3.477-0.501-6.475-2.688-8.032-5.835l-8.16-16.533l-8.171,16.544c-1.557,3.147-4.555,5.333-8.032,5.835l-18.272,2.656
	l13.216,12.885c2.507,2.443,3.659,5.984,3.061,9.44l-3.115,18.187l16.341-8.587C232.224,203.157,233.92,202.752,235.627,202.752z"/>
<circle cx="182.293" cy="119.253" r="10.667"/>
<circle cx="288.96" cy="119.253" r="10.667"/>
<circle cx="160.96" cy="204.587" r="10.667"/>
<circle cx="310.293" cy="204.587" r="10.667"/>
<circle cx="235.627" cy="268.587" r="10.667"/>
</svg>